<?xml version="1.0" encoding="utf-8"?>
<!-- Generator: Adobe Illustrator 22.0.0, SVG Export Plug-In . SVG Version: 6.00 Build 0)  -->
<svg version="1.1" id="Layer_2_1_" xmlns="http://www.w3.org/2000/svg" xmlns:xlink="http://www.w3.org/1999/xlink" x="0px" y="0px"
	 viewBox="0 0 100 100" style="enable-background:new 0 0 100 100;" xml:space="preserve">
<style type="text/css">
	.st0{fill:none;stroke:#000000;stroke-miterlimit:10;}
</style>
<path d="M50,91.5L50,91.5c-0.8,0-1.6-0.3-2.2-0.9L8.5,51.1C3.6,46.3,1,39.5,1.2,32.4c0.4-7.1,3.7-13.8,9.1-18.4
	c4.5-3.6,9.9-5.5,15.6-5.5c6.9,0,13.7,2.8,18.6,7.7l5.5,5.5l5.5-5.4c9.6-9.6,24.3-10.5,34.2-2c5.4,4.3,8.7,10.8,9.1,17.9
	s-2.3,14.1-7.3,19.1L52.1,90.7C51.6,91.2,50.8,91.5,50,91.5z"/>
<path class="st0" d="M48.6,87.1L48.6,87.1L48.6,87.1z"/>
</svg>
